<svg width="14" height="15" viewBox="0 0 14 15" fill="none" xmlns="http://www.w3.org/2000/svg">
<path d="M6.44518 9.22091L5.36602 10.3001C5.13852 10.5276 4.77685 10.5276 4.54352 10.3059C4.47935 10.2417 4.41518 10.1834 4.35102 10.1192C3.75018 9.51258 3.20768 8.87675 2.72352 8.21175C2.24518 7.54675 1.86018 6.88175 1.58018 6.22258C1.30602 5.55758 1.16602 4.92175 1.16602 4.31508C1.16602 3.91841 1.23602 3.53925 1.37602 3.18925C1.51602 2.83341 1.73768 2.50675 2.04685 2.21508C2.42018 1.84758 2.82852 1.66675 3.26018 1.66675C3.42352 1.66675 3.58685 1.70175 3.73268 1.77175C3.88435 1.84175 4.01852 1.94675 4.12352 2.09841L5.47685 4.00591C5.58185 4.15175 5.65768 4.28591 5.71018 4.41425C5.76268 4.53675 5.79185 4.65925 5.79185 4.77008C5.79185 4.91008 5.75102 5.05008 5.66935 5.18425C5.59352 5.31841 5.48268 5.45841 5.34268 5.59841L4.89935 6.05925C4.83518 6.12341 4.80602 6.19925 4.80602 6.29258C4.80602 6.33925 4.81185 6.38008 4.82352 6.42675C4.84102 6.47341 4.85852 6.50841 4.87018 6.54341C4.97518 6.73591 5.15602 6.98675 5.41268 7.29008C5.67518 7.59341 5.95518 7.90258 6.25852 8.21175C6.31685 8.27008 6.38102 8.32841 6.43935 8.38675C6.67268 8.61425 6.67852 8.98758 6.44518 9.22091Z" fill="#EBDCB7"/>
<path d="M12.8154 11.1924C12.8154 11.3558 12.7863 11.5249 12.7279 11.6883C12.7104 11.7349 12.6929 11.7816 12.6696 11.8283C12.5704 12.0383 12.4421 12.2366 12.2729 12.4233C11.9871 12.7383 11.6721 12.9658 11.3163 13.1116C11.3104 13.1116 11.3046 13.1174 11.2988 13.1174C10.9546 13.2574 10.5813 13.3333 10.1788 13.3333C9.58378 13.3333 8.94794 13.1933 8.27711 12.9074C7.60628 12.6216 6.93544 12.2366 6.27044 11.7524C6.04294 11.5833 5.81544 11.4141 5.59961 11.2333L7.50711 9.32577C7.67044 9.44827 7.81628 9.54161 7.93878 9.60577C7.96794 9.61744 8.00294 9.63494 8.04378 9.65244C8.09044 9.66994 8.13711 9.67577 8.18961 9.67577C8.28878 9.67577 8.36461 9.64078 8.42878 9.57661L8.87211 9.13911C9.01794 8.99328 9.15794 8.88244 9.29211 8.81244C9.42628 8.73077 9.56044 8.68994 9.70628 8.68994C9.81711 8.68994 9.93378 8.71327 10.0621 8.76577C10.1904 8.81827 10.3246 8.89411 10.4704 8.99328L12.4013 10.3641C12.5529 10.4691 12.6579 10.5916 12.7221 10.7374C12.7804 10.8833 12.8154 11.0291 12.8154 11.1924Z" fill="#EBDCB7"/>
</svg>
