<svg width="1038" height="230" viewBox="0 0 1038 230" fill="none" xmlns="http://www.w3.org/2000/svg">
<path fill-rule="evenodd" clip-rule="evenodd" d="M478.242 60.0188C483.358 64.3272 486.227 70.3349 486.84 78.0233L486.859 78.0511H548.254C548.17 62.5816 544.345 49.062 536.768 37.483C529.191 25.9041 518.438 16.9251 504.51 10.5367C490.582 4.1483 473.701 0.954102 455 0.954102C436.299 0.954102 419.743 4.11115 405.314 10.416C390.884 16.7301 379.612 25.5141 371.496 36.7866C363.381 48.0499 359.36 61.1888 359.434 76.1941C359.36 94.6535 365.34 109.213 377.383 119.873C389.426 130.532 405.908 138.128 426.837 142.669L450.376 147.748C459.151 149.67 466.115 151.731 471.268 153.923C476.422 156.123 480.136 158.584 482.402 161.314C484.667 164.044 485.846 167.219 485.921 170.831C485.837 174.675 484.611 178.102 482.225 181.101C479.839 184.1 476.338 186.449 471.723 188.139C467.108 189.829 461.37 190.674 454.527 190.674C446.374 190.674 439.354 189.411 433.467 186.867C427.58 184.323 423.021 180.59 419.79 175.669C416.558 170.748 414.748 164.666 414.367 157.432H353.436C353.51 177.21 357.763 193.423 366.185 206.079C374.607 218.735 386.455 228.104 401.73 234.177C417.004 240.259 435.454 243.295 455.455 243.295C475.456 243.295 492.597 240.491 506.869 234.873C521.131 229.265 532.116 221.066 539.813 210.294C547.502 199.523 551.392 186.366 551.467 170.822C551.392 161.815 549.944 153.505 547.14 145.891C544.326 138.267 539.962 131.405 534.038 125.286C528.114 119.176 520.49 113.847 511.186 109.306C501.873 104.765 490.684 101.107 477.601 98.3398L458.213 94.1892C452.595 93.0286 447.748 91.7286 443.672 90.2615C439.596 88.8037 436.253 87.1694 433.634 85.3588C431.016 83.5481 429.112 81.5053 427.924 79.2397C426.726 76.9647 426.206 74.4113 426.364 71.5606C426.447 68.0972 427.478 65.0237 429.484 62.3309C431.489 59.6381 434.582 57.5025 438.779 55.9239C442.966 54.3454 448.37 53.5561 454.991 53.5561C465.372 53.5561 473.125 55.7104 478.242 60.0188ZM227.138 243.295C215.828 243.295 205.846 241.428 197.192 237.696C188.538 233.963 181.741 228.29 176.82 220.675C171.899 213.061 169.438 203.367 169.438 191.593C169.438 181.899 171.091 173.608 174.396 166.718C177.702 159.837 182.317 154.192 188.241 149.809C194.165 145.426 201.074 142.074 208.957 139.771C216.84 137.459 225.364 135.964 234.52 135.268C244.446 134.497 252.422 133.559 258.467 132.436C264.502 131.322 268.876 129.743 271.569 127.7C274.261 125.667 275.608 122.946 275.608 119.566V119.102C275.608 114.487 273.834 110.949 270.296 108.489C266.759 106.028 262.218 104.793 256.675 104.793C250.593 104.793 245.653 106.121 241.846 108.777C238.039 111.432 235.745 115.49 234.975 120.95H176.346C177.117 110.179 180.562 100.234 186.672 91.1157C192.791 81.9974 201.733 74.6898 213.507 69.1835C225.281 63.6865 239.97 60.9287 257.594 60.9287C270.287 60.9287 281.671 62.4144 291.755 65.3764C301.83 68.3385 310.41 72.4519 317.494 77.7261C324.57 83.0002 329.974 89.1472 333.707 96.1948C337.44 103.233 339.306 110.875 339.306 119.102V240.509H279.758V215.578H278.375C274.837 222.198 270.547 227.547 265.505 231.623C260.463 235.699 254.734 238.661 248.309 240.509C241.883 242.357 234.826 243.276 227.128 243.276L227.138 243.295ZM247.909 203.135C252.756 203.135 257.315 202.132 261.587 200.136C265.858 198.14 269.34 195.252 272.033 191.482C274.726 187.712 276.072 183.134 276.072 177.749V162.976C274.382 163.672 272.59 164.322 270.705 164.935C268.82 165.548 266.814 166.133 264.707 166.662C262.59 167.201 260.361 167.702 258.012 168.166C255.663 168.631 253.221 169.048 250.686 169.438C245.764 170.209 241.744 171.463 238.624 173.19C235.504 174.917 233.201 177.034 231.697 179.541C230.193 182.039 229.45 184.834 229.45 187.907C229.45 192.828 231.177 196.598 234.64 199.217C238.104 201.835 242.524 203.145 247.909 203.145V203.135ZM616.821 243.295C605.512 243.295 595.53 241.428 586.876 237.696C578.222 233.963 571.425 228.29 566.504 220.675C561.582 213.061 559.122 203.367 559.122 191.593C559.122 181.899 560.774 173.608 564.08 166.718C567.386 159.837 572 154.192 577.925 149.809C583.849 145.426 590.748 142.074 598.64 139.771C606.524 137.459 615.048 135.964 624.203 135.268C634.129 134.497 642.115 133.559 648.15 132.436C654.186 131.322 658.559 129.743 661.252 127.7C663.945 125.667 665.291 122.946 665.291 119.566V119.102C665.291 114.487 663.518 110.949 659.98 108.489C656.442 106.028 651.902 104.793 646.358 104.793C640.276 104.793 635.337 106.121 631.529 108.777C627.722 111.432 625.429 115.49 624.658 120.95H566.03C566.801 110.179 570.246 100.234 576.355 91.1157C582.474 81.9974 591.416 74.6898 603.19 69.1835C614.964 63.6865 629.654 60.9287 647.278 60.9287C659.971 60.9287 671.355 62.4144 681.439 65.3764C691.513 68.3385 700.093 72.4519 707.169 77.7261C714.244 83.0002 719.648 89.1472 723.381 96.1948C727.114 103.233 728.98 110.875 728.98 119.102V240.509H669.433V215.578H668.049C664.511 222.198 660.221 227.547 655.18 231.623C650.138 235.699 644.408 238.661 637.983 240.509C631.557 242.357 624.5 243.276 616.803 243.276L616.821 243.295ZM637.602 203.135C642.449 203.135 647.008 202.132 651.28 200.136C655.551 198.14 659.033 195.252 661.726 191.482C664.419 187.712 665.765 183.134 665.765 177.749V162.976C664.075 163.672 662.283 164.322 660.398 164.935C658.513 165.548 656.507 166.133 654.4 166.662C652.282 167.201 650.054 167.702 647.705 168.166C645.356 168.631 642.913 169.048 640.378 169.438C635.457 170.209 631.437 171.463 628.317 173.19C625.197 174.917 622.894 177.034 621.39 179.541C619.885 182.039 619.143 184.834 619.143 187.907C619.143 192.828 620.87 196.598 624.333 199.217C627.797 201.835 632.217 203.145 637.602 203.145V203.135ZM750.04 63.2496V240.518H813.747V148.193C813.747 141.424 815.168 135.518 818.018 130.476C820.869 125.434 824.778 121.516 829.736 118.702C834.695 115.889 840.294 114.487 846.525 114.487C849.83 114.487 853.795 114.756 858.41 115.294C863.025 115.833 866.906 116.641 870.063 117.718V63.361C867.528 62.5903 864.891 61.996 862.161 61.5689C859.422 61.1511 856.674 60.9375 853.906 60.9375C844.445 60.9375 836.19 63.8253 829.151 69.5915C822.113 75.3671 816.978 84.4854 813.747 96.9464H811.899V63.2496H750.04ZM925.278 243.295C913.969 243.295 903.987 241.428 895.333 237.696C886.679 233.963 879.882 228.29 874.961 220.675C870.039 213.061 867.579 203.367 867.579 191.593C867.579 181.899 869.231 173.608 872.537 166.718C875.843 159.837 880.458 154.192 886.391 149.809C892.315 145.426 899.223 142.074 907.107 139.771C914.99 137.459 923.514 135.964 932.67 135.268C942.596 134.497 950.581 133.559 956.617 132.436C962.652 131.322 967.026 129.743 969.719 127.7C972.411 125.667 973.758 122.946 973.758 119.566V119.102C973.758 114.487 971.984 110.949 968.446 108.489C964.909 106.028 960.368 104.793 954.825 104.793C948.743 104.793 943.803 106.121 939.996 108.777C936.189 111.432 933.895 115.49 933.125 120.95H874.496C875.267 110.179 878.712 100.234 884.822 91.1157C890.941 81.9974 899.883 74.6898 911.657 69.1835C923.431 63.6865 938.12 60.9287 955.744 60.9287C968.437 60.9287 979.821 62.4144 989.905 65.3764C999.98 68.3385 1008.56 72.4519 1015.64 77.7261C1022.72 83.0002 1028.12 89.1472 1031.86 96.1948C1035.59 103.233 1037.46 110.875 1037.46 119.102V240.509H977.908V215.578H976.525C972.987 222.198 968.697 227.547 963.655 231.623C958.613 235.699 952.884 238.661 946.458 240.509C940.033 242.357 932.976 243.276 925.278 243.276V243.295ZM946.05 203.135C950.897 203.135 955.456 202.132 959.727 200.136C963.999 198.14 967.481 195.252 970.173 191.482C972.866 187.712 974.213 183.134 974.213 177.749V162.976C972.523 163.672 970.731 164.322 968.846 164.935C966.961 165.548 964.964 166.133 962.847 166.662C960.73 167.201 958.502 167.702 956.152 168.166C953.803 168.631 951.361 169.048 948.826 169.438C943.905 170.209 939.884 171.463 936.764 173.19C933.645 174.917 931.342 177.034 929.838 179.541C928.333 182.039 927.59 184.834 927.59 187.907C927.59 192.828 929.318 196.598 932.781 199.217C936.244 201.835 940.664 203.145 946.05 203.145V203.135ZM0.662109 4.16504V240.517H160.381V188.815H64.8245V4.16504H0.662109Z" fill="#F4F1E9"/>
</svg>
