<svg width="39" height="38" viewBox="0 0 39 38" fill="none" xmlns="http://www.w3.org/2000/svg">
<circle cx="19.4443" cy="19.0977" r="17.8467" stroke="white" stroke-width="2"/>
<path d="M21.785 13.5107H17.1033C15.0698 13.5107 13.8574 14.7231 13.8574 16.7567V21.4328C13.8574 23.472 15.0698 24.6843 17.1033 24.6843H21.7795C23.813 24.6843 25.0254 23.472 25.0254 21.4384V16.7567C25.031 14.7231 23.8186 13.5107 21.785 13.5107ZM19.4442 21.2652C18.2486 21.2652 17.2765 20.2931 17.2765 19.0975C17.2765 17.9019 18.2486 16.9298 19.4442 16.9298C20.6398 16.9298 21.6119 17.9019 21.6119 19.0975C21.6119 20.2931 20.6398 21.2652 19.4442 21.2652ZM22.7516 16.2371C22.7236 16.3041 22.6845 16.3656 22.6342 16.4214C22.5784 16.4717 22.5169 16.5108 22.4499 16.5388C22.3828 16.5667 22.3102 16.5835 22.2376 16.5835C22.0867 16.5835 21.9471 16.5276 21.8409 16.4214C21.7906 16.3656 21.7515 16.3041 21.7236 16.2371C21.6957 16.17 21.6789 16.0974 21.6789 16.0248C21.6789 15.9522 21.6957 15.8795 21.7236 15.8125C21.7515 15.7399 21.7906 15.684 21.8409 15.6281C21.9694 15.4996 22.1649 15.4382 22.3437 15.4773C22.3828 15.4829 22.4164 15.494 22.4499 15.5108C22.4834 15.522 22.5169 15.5387 22.5504 15.5611C22.5784 15.5778 22.6063 15.6058 22.6342 15.6281C22.6845 15.684 22.7236 15.7399 22.7516 15.8125C22.7795 15.8795 22.7963 15.9522 22.7963 16.0248C22.7963 16.0974 22.7795 16.17 22.7516 16.2371Z" fill="white"/>
</svg>
