<svg width="115" height="27" viewBox="0 0 115 27" fill="none" xmlns="http://www.w3.org/2000/svg">
<path fill-rule="evenodd" clip-rule="evenodd" d="M52.7326 6.64254C53.2976 7.11826 53.6144 7.7816 53.682 8.63052L53.6841 8.6336H60.4631C60.4539 6.92551 60.0315 5.43273 59.1949 4.15423C58.3582 2.87573 57.171 1.8843 55.6331 1.17892C54.0952 0.47354 52.2313 0.12085 50.1664 0.12085C48.1015 0.12085 46.2735 0.469439 44.6802 1.16559C43.087 1.86277 41.8423 2.83267 40.9462 4.07733C40.0502 5.32098 39.6062 6.77172 39.6144 8.42854C39.6062 10.4668 40.2665 12.0744 41.5962 13.2514C42.926 14.4284 44.7459 15.267 47.0568 15.7684L49.6558 16.3292C50.6247 16.5414 51.3936 16.769 51.9627 17.011C52.5317 17.254 52.9418 17.5257 53.192 17.8271C53.4421 18.1285 53.5723 18.4792 53.5805 18.878C53.5713 19.3025 53.436 19.6808 53.1725 20.012C52.909 20.3431 52.5225 20.6025 52.0129 20.7891C51.5033 20.9757 50.8697 21.069 50.1141 21.069C49.2139 21.069 48.4388 20.9296 47.7888 20.6486C47.1388 20.3677 46.6354 19.9556 46.2786 19.4122C45.9218 18.8688 45.7219 18.1972 45.6799 17.3986H38.9521C38.9603 19.5824 39.4299 21.3725 40.3598 22.7699C41.2897 24.1673 42.5979 25.2018 44.2845 25.8723C45.971 26.5439 48.0082 26.8792 50.2166 26.8792C52.4251 26.8792 54.3177 26.5695 55.8935 25.9492C57.4683 25.33 58.6812 24.4247 59.5311 23.2354C60.3801 22.0461 60.8096 20.5933 60.8178 18.877C60.8096 17.8825 60.6497 16.9649 60.3401 16.1242C60.0294 15.2824 59.5476 14.5247 58.8934 13.8491C58.2393 13.1745 57.3976 12.586 56.3703 12.0846C55.3419 11.5833 54.1065 11.1793 52.6619 10.8738L50.5211 10.4155C49.9009 10.2873 49.3657 10.1438 48.9156 9.98181C48.4655 9.82085 48.0964 9.6404 47.8073 9.44048C47.5182 9.24055 47.308 9.01499 47.1767 8.76483C47.0445 8.51364 46.9871 8.2317 47.0045 7.91694C47.0137 7.53452 47.1275 7.19516 47.349 6.89783C47.5704 6.6005 47.9119 6.36469 48.3753 6.1904C48.8377 6.01611 49.4344 5.92896 50.1654 5.92896C51.3116 5.92896 52.1677 6.16682 52.7326 6.64254ZM25.0067 26.8791C23.7579 26.8791 22.6557 26.673 21.7002 26.2608C20.7447 25.8487 19.9942 25.2222 19.4508 24.3815C18.9074 23.5408 18.6357 22.4704 18.6357 21.1704C18.6357 20.1 18.8182 19.1845 19.1832 18.4237C19.5482 17.664 20.0577 17.0406 20.7118 16.5567C21.366 16.0728 22.1288 15.7027 22.9992 15.4484C23.8697 15.1931 24.8108 15.0281 25.8218 14.9512C26.9178 14.8661 27.7985 14.7625 28.4659 14.6385C29.1323 14.5154 29.6152 14.3411 29.9125 14.1156C30.2099 13.891 30.3585 13.5906 30.3585 13.2174V13.1662C30.3585 12.6566 30.1627 12.266 29.7721 11.9943C29.3815 11.7226 28.8801 11.5863 28.268 11.5863C27.5965 11.5863 27.051 11.7329 26.6307 12.0261C26.2103 12.3193 25.9571 12.7674 25.872 13.3702H19.3985C19.4836 12.1809 19.864 11.0829 20.5386 10.076C21.2142 9.06924 22.2016 8.26236 23.5016 7.65438C24.8016 7.04742 26.4236 6.74292 28.3695 6.74292C29.7711 6.74292 31.028 6.90696 32.1415 7.23402C33.2539 7.56108 34.2012 8.01527 34.9835 8.59762C35.7647 9.17997 36.3614 9.85869 36.7736 10.6369C37.1858 11.414 37.3918 12.2578 37.3918 13.1662V26.5715H30.8168V23.8186H30.6641C30.2734 24.5497 29.7998 25.1402 29.2431 25.5903C28.6863 26.0404 28.0537 26.3675 27.3443 26.5715C26.6348 26.7755 25.8556 26.877 25.0056 26.877L25.0067 26.8791ZM27.3002 22.4448C27.8354 22.4448 28.3388 22.3341 28.8104 22.1136C29.282 21.8932 29.6665 21.5744 29.9638 21.1581C30.2611 20.7418 30.4098 20.2364 30.4098 19.6417V18.0105C30.2232 18.0874 30.0253 18.1592 29.8172 18.2269C29.6091 18.2945 29.3876 18.3591 29.1549 18.4176C28.9211 18.477 28.6751 18.5324 28.4157 18.5837C28.1563 18.6349 27.8866 18.6811 27.6067 18.7241C27.0633 18.8092 26.6194 18.9476 26.2749 19.1383C25.9304 19.329 25.6762 19.5628 25.5101 19.8396C25.344 20.1154 25.262 20.424 25.262 20.7634C25.262 21.3068 25.4527 21.723 25.8351 22.0121C26.2175 22.3013 26.7055 22.4458 27.3002 22.4458V22.4448ZM68.0342 26.8792C66.7854 26.8792 65.6833 26.6731 64.7277 26.2609C63.7722 25.8488 63.0217 25.2223 62.4783 24.3816C61.9349 23.5409 61.6632 22.4705 61.6632 21.1705C61.6632 20.1001 61.8457 19.1846 62.2107 18.4238C62.5757 17.6641 63.0852 17.0408 63.7394 16.5568C64.3935 16.0729 65.1552 15.7028 66.0267 15.4485C66.8972 15.1932 67.8384 15.0282 68.8493 14.9513C69.9453 14.8662 70.827 14.7626 71.4934 14.6386C72.1598 14.5155 72.6427 14.3412 72.9401 14.1157C73.2374 13.8911 73.386 13.5907 73.386 13.2175V13.1663C73.386 12.6567 73.1902 12.2661 72.7996 11.9944C72.409 11.7227 71.9076 11.5864 71.2955 11.5864C70.624 11.5864 70.0786 11.733 69.6582 12.0262C69.2378 12.3194 68.9846 12.7675 68.8995 13.3703H62.426C62.5111 12.181 62.8915 11.083 63.5661 10.0761C64.2417 9.06934 65.2291 8.26246 66.5291 7.65448C67.8291 7.04753 69.4511 6.74302 71.397 6.74302C72.7986 6.74302 74.0555 6.90707 75.169 7.23412C76.2814 7.56118 77.2287 8.01537 78.01 8.59772C78.7912 9.18007 79.3879 9.85879 79.8001 10.637C80.2122 11.4141 80.4183 12.2579 80.4183 13.1663V26.5716H73.8433V23.8188H73.6905C73.2999 24.5498 72.8262 25.1403 72.2695 25.5904C71.7128 26.0405 71.0802 26.3676 70.3708 26.5716C69.6613 26.7756 68.8821 26.8771 68.0321 26.8771L68.0342 26.8792ZM70.3287 22.4449C70.8639 22.4449 71.3673 22.3342 71.8389 22.1137C72.3105 21.8933 72.695 21.5745 72.9923 21.1582C73.2897 20.7419 73.4383 20.2365 73.4383 19.6418V18.0106C73.2517 18.0875 73.0539 18.1593 72.8457 18.227C72.6376 18.2946 72.4162 18.3592 72.1834 18.4177C71.9497 18.4771 71.7036 18.5325 71.4442 18.5838C71.1848 18.635 70.9152 18.6812 70.6353 18.7242C70.0919 18.8093 69.6479 18.9477 69.3035 19.1384C68.959 19.3291 68.7047 19.5629 68.5386 19.8397C68.3725 20.1155 68.2905 20.4241 68.2905 20.7635C68.2905 21.3069 68.4812 21.7231 68.8636 22.0122C69.246 22.3014 69.7341 22.4459 70.3287 22.4459V22.4449ZM82.7431 6.99943V26.5727H89.7774V16.3785C89.7774 15.6311 89.9343 14.979 90.2491 14.4223C90.5638 13.8656 90.9954 13.4329 91.5429 13.1223C92.0904 12.8116 92.7087 12.6568 93.3966 12.6568C93.7616 12.6568 94.1994 12.6866 94.7089 12.746C95.2185 12.8055 95.6471 12.8947 95.9957 13.0136V7.01173C95.7158 6.92664 95.4246 6.86102 95.1231 6.81386C94.8207 6.76772 94.5172 6.74414 94.2117 6.74414C93.1669 6.74414 92.2555 7.063 91.4783 7.69969C90.7012 8.3374 90.1342 9.3442 89.7774 10.7201H89.5734V6.99943H82.7431ZM102.093 26.8791C100.844 26.8791 99.7417 26.673 98.7861 26.2608C97.8306 25.8487 97.0801 25.2222 96.5367 24.3815C95.9933 23.5408 95.7216 22.4704 95.7216 21.1704C95.7216 20.1 95.9041 19.1845 96.2691 18.4237C96.6341 17.664 97.1437 17.0406 97.7988 16.5567C98.4529 16.0728 99.2157 15.7027 100.086 15.4484C100.957 15.1931 101.898 15.0281 102.909 14.9512C104.005 14.8661 104.886 14.7625 105.553 14.6385C106.219 14.5154 106.702 14.3411 107 14.1156C107.297 13.891 107.445 13.5906 107.445 13.2174V13.1662C107.445 12.6566 107.25 12.266 106.859 11.9943C106.468 11.7226 105.967 11.5863 105.355 11.5863C104.683 11.5863 104.138 11.7329 103.718 12.0261C103.297 12.3193 103.044 12.7674 102.959 13.3702H96.4854C96.5705 12.1809 96.9509 11.0829 97.6255 10.076C98.3012 9.06924 99.2885 8.26236 100.589 7.65438C101.889 7.04742 103.511 6.74292 105.456 6.74292C106.858 6.74292 108.115 6.90696 109.228 7.23402C110.341 7.56108 111.288 8.01527 112.07 8.59762C112.852 9.17997 113.448 9.85869 113.861 10.6369C114.273 11.414 114.479 12.2578 114.479 13.1662V26.5715H107.904V23.8186H107.751C107.36 24.5497 106.887 25.1402 106.33 25.5903C105.773 26.0404 105.141 26.3675 104.431 26.5715C103.722 26.7755 102.943 26.877 102.093 26.877V26.8791ZM104.386 22.4448C104.921 22.4448 105.425 22.3341 105.896 22.1136C106.368 21.8932 106.752 21.5744 107.05 21.1581C107.347 20.7418 107.496 20.2364 107.496 19.6417V18.0105C107.309 18.0874 107.111 18.1592 106.903 18.2269C106.695 18.2945 106.475 18.3591 106.241 18.4176C106.007 18.477 105.761 18.5324 105.502 18.5837C105.242 18.6349 104.973 18.6811 104.693 18.7241C104.149 18.8092 103.705 18.9476 103.361 19.1383C103.016 19.329 102.762 19.5628 102.596 19.8396C102.43 20.1154 102.348 20.424 102.348 20.7634C102.348 21.3068 102.539 21.723 102.921 22.0121C103.303 22.3013 103.791 22.4458 104.386 22.4458V22.4448ZM0 0.475586V26.5726H17.6355V20.8639H7.08456V0.475586H0Z" fill="white"/>
</svg>
