<svg width="38" height="38" viewBox="0 0 38 38" fill="none" xmlns="http://www.w3.org/2000/svg">
<circle cx="18.8779" cy="19.0977" r="17.8467" stroke="white" stroke-width="2"/>
<path d="M22.256 11.127H19.6065L18.9441 23.0497C18.9441 23.0497 17.8862 24.2939 16.957 24.3744C15.6684 24.486 14.5458 23.6585 14.3075 22.3873C14.0943 21.2503 14.5819 20.2226 15.6322 19.7378C16.3368 19.4126 17.6194 19.7378 17.6194 19.7378V17.0883C17.6194 17.0883 15.9647 16.8041 14.9699 17.0883C12.4091 17.82 11.0896 20.4478 11.658 23.0497C12.2552 25.7832 14.8417 27.3606 17.6194 27.0239C19.9869 26.7369 19.94 26.6779 20.9312 25.6992C21.7544 24.8864 22.256 23.0497 22.256 23.0497L22.256 16.4259C22.256 16.4259 23.0451 16.8701 23.5807 17.0883C24.5684 17.4907 26.2302 17.7507 26.2302 17.7507V15.1012C26.2302 15.1012 24.3987 14.5944 23.5807 13.7764C22.7627 12.9585 22.256 11.127 22.256 11.127Z" fill="white"/>
</svg>
